HIERARCHY
ROOT Hips
{
  OFFSET 40.9192 92.6879 18.85
  CHANNELS 6 Xposition Yposition Zposition Zrotation Xrotation Yrotation
  JOINT LeftUpLeg
  {
    OFFSET 8.64259 1.95398 -2.38835
    CHANNELS 3 Zrotation Xrotation Yrotation
    JOINT LeftLeg
    {
      OFFSET 43.7702 0 0
      CHANNELS 3 Zrotation Xrotation Yrotation
      JOINT LeftFoot
      {
        OFFSET 40.6238 0 0
        CHANNELS 3 Zrotation Xrotation Yrotation
        JOINT LeftToeBase
        {
          OFFSET 12.7242 0 0
          CHANNELS 3 Zrotation Xrotation Yrotation
          End Site
          {
            OFFSET 0 0 0
          }
        }
      }
    }
  }
  JOINT RightUpLeg
  {
    OFFSET -8.2249 1.95398 -2.59336
    CHANNELS 3 Zrotation Xrotation Yrotation
    JOINT RightLeg
    {
      OFFSET 43.5653 0 0
      CHANNELS 3 Zrotation Xrotation Yrotation
      JOINT RightFoot
      {
        OFFSET 40.6238 0 0
        CHANNELS 3 Zrotation Xrotation Yrotation
        JOINT RightToeBase
        {
          OFFSET 12.7242 0 0
          CHANNELS 3 Zrotation Xrotation Yrotation
          End Site
          {
            OFFSET 0 0 0
          }
        }
      }
    }
  }
  JOINT Spine
  {
    OFFSET 0.165834 0.87714 6.61349
    CHANNELS 3 Zrotation Xrotation Yrotation
    JOINT Spine1
    {
      OFFSET 7.38963 1.71661e-005 0
      CHANNELS 3 Zrotation Xrotation Yrotation
      JOINT Spine2
      {
        OFFSET 11.9445 1.14441e-005 0
        CHANNELS 3 Zrotation Xrotation Yrotation
        JOINT Spine3
        {
          OFFSET 14.7254 4.19617e-005 0
          CHANNELS 3 Zrotation Xrotation Yrotation
          JOINT Spine4
          {
            OFFSET 10.9679 0 0
            CHANNELS 3 Zrotation Xrotation Yrotation
            JOINT RightShoulder
            {
              OFFSET 2.46616 -1.6653 3.69651
              CHANNELS 3 Zrotation Xrotation Yrotation
              JOINT RightArm
              {
                OFFSET 13.0012 0 0
                CHANNELS 3 Zrotation Xrotation Yrotation
                JOINT RightForeArm
                {
                  OFFSET 28.7848 1.52588e-005 0
                  CHANNELS 3 Zrotation Xrotation Yrotation
                  JOINT RightHand
                  {
                    OFFSET 26.5688 1.52588e-005 0
                    CHANNELS 3 Zrotation Xrotation Yrotation
                    End Site
                    {
                      OFFSET 0 0 0
                    }
                  }
                }
              }
            }
            JOINT LeftShoulder
            {
              OFFSET 2.38034 -1.29275 -3.7523
              CHANNELS 3 Zrotation Xrotation Yrotation
              JOINT LeftArm
              {
                OFFSET 16.3182 6.10351e-005 0
                CHANNELS 3 Zrotation Xrotation Yrotation
                JOINT LeftForeArm
                {
                  OFFSET 27.0901 0 0
                  CHANNELS 3 Zrotation Xrotation Yrotation
                  JOINT LeftHand
                  {
                    OFFSET 24.5451 1.52588e-005 0
                    CHANNELS 3 Zrotation Xrotation Yrotation
                    End Site
                    {
                      OFFSET 0 0 0
                    }
                  }
                }
              }
            }
            JOINT Neck
            {
              OFFSET 5.0226 -0.0266342 0
              CHANNELS 3 Zrotation Xrotation Yrotation
              JOINT Head
              {
                OFFSET 6.69363 2.86102e-005 0
                CHANNELS 3 Zrotation Xrotation Yrotation
                End Site
                {
                  OFFSET 0 0 0
                }
              }
            }
          }
        }
      }
    }
  }
}
MOTION
Frames:	13
Frame Time:	0.0416667
-141.107 89.6327 -128.24 100.855 -56.5135 94.4922 -170.552 27.3837 86.2241 -40.071 21.0656 -4.65914 61.8719 3.03733 6.14008 28.2403 -0.158311 -2.57532 -178.525 9.54351 84.3878 -82.78 0.965751 -5.04936 34.6581 3.70818 4.19597 27.9288 0.580799 -8.82631 0.733386 7.48977 -88.6796 11.8635 2.07963 2.40957 0.192107 2.18364 2.31574 -22.3308 1.2597 2.92285 -2.31817 1.25969 2.92284 90.2282 -47.0118 -101.177 31.8249 -13.337 8.36899 -11.0983 -31.9021 -47.0184 2.91231 -0.381099 5.70403 -97.6601 -49.2848 67.1626 -22.4189 5.74255 2.11395 0.612195 -0.431552 -35.8769 13.5308 0.738575 1.63555 16.0182 -2.93732 -3.49443 -6.09922 -1.97314 -1.33056 
-134.346 93.0673 -122.52 101.106 -58.0601 99.0917 -170.832 21.3684 89.9897 -38.5775 22.2239 -3.84731 60.9857 2.01597 5.86873 33.7949 3.96285 -0.432215 -176.031 24.735 90.159 -95.8276 4.63191 -3.24532 37.367 1.43864 1.80127 28.0107 0.443503 -6.77838 0.476224 7.51475 -89.1878 11.8337 1.32917 1.47784 0.162664 1.39292 1.41791 -22.3683 0.823636 1.8089 -2.35561 0.823659 1.80891 89.9502 -47.1879 -101.575 30.5705 -13.4515 13.5792 -17.9212 -37.324 -51.1701 6.4086 -0.410994 5.45314 -96.1063 -47.938 69.0242 -22.2872 3.31706 -1.60626 8.26188 3.30428 -53.9077 18.507 1.6717 5.17288 15.658 -0.845143 -3.82638 -5.15491 0.12748 -0.650057 
-128.259 98.1247 -117.668 108.252 -56.2565 107.479 -172.662 11.1933 91.7192 -33.1035 21.4802 -1.10518 48.8481 -7.17645 -1.8273 37.6982 6.98391 0.458352 178.684 32.5308 93.8979 -101.146 10.0376 -2.02252 46.6615 -1.81052 -1.15441 30.9563 0.411891 -6.49098 0.0805863 8.07512 -89.5639 10.7215 0.361561 0.835476 -0.94965 0.397965 0.818752 -23.4825 0.0937593 0.90552 -3.46988 0.0937609 0.905514 89.7904 -46.8801 -101.905 29.9853 -12.4341 19.3022 -15.3597 -35.5286 -48.9198 0.29958 -0.664731 4.53505 -94.3537 -45.8823 71.0379 -22.428 1.94555 -1.9229 10.1903 1.23347 -69.4787 24.7698 1.90195 3.84182 12.3903 0.976524 -3.6284 -2.30509 1.78406 1.3775 
-122.79 102.39 -112.111 109.126 -50.9455 109.58 -173.94 8.53396 93.1602 -34.1551 21.2527 0.732389 39.2045 -11.8251 -10.4937 30.2399 0.314811 9.91641 171.521 38.1027 97.6083 -101.448 2.55885 -1.23466 50.7527 -1.22078 -0.773625 34.3031 0.341999 -4.40133 -0.432795 8.32374 -89.8122 10.2274 -0.776563 0.440126 -1.44344 -0.756421 0.473873 -23.9803 -0.872936 0.186379 -3.96762 -0.872926 0.186377 90.5982 -46.7453 -100.652 30.7461 -10.6478 26.8638 -11.3112 -28.6293 -47.4448 -1.09645 -0.57413 2.58943 -91.8297 -41.3474 73.6843 -22.6415 4.19648 -3.81669 11.637 -0.216003 -79.6064 26.8964 2.00691 3.66569 6.40911 1.19167 -3.87514 2.04565 1.95148 2.17133 
-117.475 104.863 -106.762 110.456 -48.2517 111.194 -172.548 6.9734 93.9535 -30.3777 19.8712 0.123025 42.7068 -9.71984 -8.77391 32.2461 2.21741 9.29458 170.749 41.4447 99.4282 -97.8942 -4.27841 -1.04435 51.9944 -0.282975 -0.156047 37.1646 0.370002 -3.68987 -0.543206 8.41921 -89.9499 10.0366 -1.05951 0.187135 -1.63392 -1.05027 0.233592 -24.1726 -1.06678 -0.139984 -4.1599 -1.06679 -0.139987 91.445 -44.3923 -99.8357 33.4412 -8.34214 35.0973 -8.35419 -22.0459 -47.2191 -0.237418 -0.405188 0.0661476 -89.3722 -36.6218 76.5025 -22.4577 5.72359 -6.85132 15.9381 -3.37181 -88.067 17.4335 1.04808 2.06995 1.98179 0.685627 -4.46469 5.03936 1.45866 2.312 
-112.337 105.315 -100.953 110.723 -45.7529 110.979 -170.469 1.16424 94.4736 -9.96854 16.9797 -1.45674 40.1298 -10.5178 -10.3244 39.4863 8.89143 9.1886 171.364 41.9048 99.5288 -91.9224 -3.88616 -0.716384 56.9853 -1.66059 -1.09622 31.442 0.492934 -8.76063 -0.662635 8.4878 -89.8695 9.90062 -1.26145 0.361106 -1.76978 -1.24434 0.416281 -24.3099 -1.31165 -0.0347703 -4.29721 -1.31164 -0.0347678 91.6302 -44.3153 -99.5476 33.2908 -6.66684 40.3435 -8.23906 -20.5686 -46.8617 0.282669 -0.372197 1.12785 -88.6342 -33.918 77.0692 -17.9171 5.58893 -10.4279 14.628 -5.28859 -94.8017 15.2027 0.680706 0.615972 0.278806 -0.127229 -5.86966 5.36893 0.714521 1.82027 
-106.652 103.141 -94.9999 108.887 -42.5928 109.796 -170.53 3.93681 94.6316 -6.47572 12.1095 -2.15571 42.8793 -10.3175 -7.5304 38.8552 8.3907 11.0572 171.446 40.9753 98.3548 -82.9036 -0.83644 0.0718918 59.9718 -2.4764 -1.53566 36.2746 0.365279 -7.90658 -0.913822 8.39538 -89.922 10.0866 -1.78547 0.303906 -1.58314 -1.77035 0.382206 -24.1281 -1.79423 -0.246923 -4.11548 -1.79423 -0.246933 91.7407 -44.5795 -99.306 31.3353 -5.88901 42.8055 -9.1803 -22.9413 -44.3488 0.0796152 -0.426056 1.09429 -88.8786 -34.8036 76.8731 -11.3265 3.08934 -14.3635 13.7202 -6.70581 -100.125 13.4226 0.486936 -0.282574 -0.862241 -0.684984 -6.75596 5.03135 0.247856 2.45809 
-101.068 97.9132 -89.5737 109.881 -39.7563 111.857 -168.785 7.36353 95.952 -17.2904 8.85337 -3.23742 52.8551 -3.82664 -3.32767 30.4106 0.950777 5.91797 171.721 37.4547 97.8161 -71.1425 -0.497474 1.23024 63.8256 -3.30511 -1.9393 39.3019 0.335672 -6.96862 -1.02955 8.48426 -90.0419 9.9056 -2.07107 0.0835146 -1.76372 -2.06537 0.174612 -24.3114 -2.00037 -0.543043 -4.29871 -2.00037 -0.543053 90.9403 -45.2872 -100.442 29.1538 -5.53486 44.4233 -9.386 -25.5308 -41.7911 0.695499 -0.453334 2.92038 -88.7174 -35.5698 77.3735 -6.8999 -1.17961 -18.5059 12.8242 -6.66356 -103.081 17.6887 0.900274 1.25403 -0.81616 -1.19257 -7.32923 4.06514 -0.21618 2.51406 
-96.4315 92.7419 -83.9695 110.905 -38.2151 110.213 -168.587 13.9751 93.2245 -42.5868 8.69807 -2.8901 66.9667 7.35293 5.40873 30.0325 0.966412 0.0704906 174.167 32.6439 94.7814 -53.6146 -0.479112 0.904039 67.0948 -4.13811 -2.30018 41.2632 0.215802 -9.02984 -1.02395 8.68115 -89.6819 9.52191 -1.89816 0.777246 -2.14788 -1.86211 0.860047 -24.6944 -2.04398 0.170617 -4.68172 -2.04397 0.170613 91.1992 -47.5294 -99.5249 26.1816 -4.79742 40.1487 -9.65068 -30.6688 -37.3605 3.11635 -0.412957 4.30519 -89.0528 -37.3945 77.2644 -4.58572 -4.88658 -22.3494 13.137 -6.17873 -102.703 17.7453 0.772076 0.493411 3.34941 -2.77911 -8.72167 0.424339 -1.42065 1.57882 
-91.477 90.3641 -78.2248 111.669 -40.2004 109.632 -166.635 15.4839 93.6686 -54.9744 9.72067 -2.90342 67.3105 9.29624 7.8004 40.7745 9.37797 -0.3496 175.098 24.2734 94.1835 -28.5536 -1.36972 1.45151 66.8007 -3.64219 -2.03289 41.7469 0.409428 -4.86818 -0.655999 8.50677 -89.5323 9.86459 -1.09537 1.0162 -1.80632 -1.04957 1.06341 -24.3437 -1.35011 0.639991 -4.33103 -1.35013 0.63999 93.0063 -46.4036 -96.8653 28.6201 -4.20128 34.056 -10.3818 -32.8002 -36.2933 0.0687088 -0.661818 9.60706 -90.7951 -39.7125 74.9268 -7.91407 -4.40088 -18.6948 13.5397 -5.17509 -98.6916 16.339 0.605133 -0.14934 0.974887 -3.74364 -8.09246 2.02 -2.70446 0.336434 
-86.2569 89.7502 -72.8076 112.632 -42.9204 108.416 -164.404 8.67057 92.4001 -53.7318 5.19571 -4.33466 73.1213 14.9158 9.44742 42.2673 10.7016 1.55311 174.183 15.7348 93.1606 -8.15349 6.70056 3.21946 65.6183 -3.85782 -2.19323 43.7574 0.342211 -6.18714 -0.440857 8.35145 -89.3608 10.1732 -0.586829 1.31672 -1.49831 -0.528306 1.34126 -24.0308 -0.95541 1.07952 -4.0181 -0.955401 1.07952 92.9919 -44.5972 -97.2426 31.3095 -6.21287 31.331 -12.8662 -34.6926 -40.6191 1.68162 -0.576128 5.47543 -90.4791 -42.6337 76.2426 -8.91234 0.151679 -14.7757 15.0972 -4.81585 -94.0523 17.2793 0.910801 1.4117 2.69267 -3.9317 -6.59347 0.0540431 -2.98862 0.0495058 
-80.9673 90.0954 -66.8704 110.843 -44.7444 105.403 -166.194 3.42186 90.9307 -51.9495 3.3136 -3.69109 72.0197 13.9583 9.61136 46.0544 13.9728 3.30996 172.742 15.3371 92.5678 -8.36861 18.0478 5.19502 69.5059 -4.2629 -2.26826 42.9386 0.210078 -8.33965 -0.477205 8.03074 -89.3303 10.8166 -0.640826 1.39509 -0.85492 -0.57881 1.42193 -23.3872 -1.03049 1.13805 -3.37458 -1.03048 1.13804 93.8813 -44.4938 -95.7938 30.826 -8.26207 27.4747 -13.0756 -32.1897 -44.132 0.976342 -0.583985 3.68963 -91.1792 -45.0086 75.7432 -10.3314 3.72374 -9.70684 14.7016 -3.85366 -87.4078 16.3926 0.873781 1.41206 3.41368 -3.75134 -4.09797 -1.32381 -3.12699 -0.223324 
-75.8684 90.3357 -60.8811 111.872 -47.8733 106.02 -163.992 -0.25053 93.2597 -52.9796 4.52945 -4.82202 69.6151 10.4786 6.26766 47.9191 16.1803 7.11292 173.575 12.1522 93.5374 -8.26859 13.847 4.64757 67.6567 -4.68358 -2.59761 43.4318 0.141583 -9.40818 -0.351379 7.91255 -89.4789 11.0487 -0.457824 1.07952 -0.6226 -0.409863 1.09861 -23.1558 -0.761065 0.892041 -3.1431 -0.761063 0.892036 94.2867 -43.8897 -95.229 30.6788 -9.25157 22.8643 -12.3909 -31.5708 -45.1827 -4.50067 -0.858733 5.10836 -92.3092 -45.6032 74.1275 -13.5046 5.83378 -3.85605 12.6486 -0.826069 -77.9125 15.0363 0.855692 1.81244 4.65783 -3.15071 -2.23713 -2.57247 -2.7654 0.260313 
